<?xml version="1.0" standalone="no"?>
<!DOCTYPE svg PUBLIC "-//W3C//DTD SVG 20010904//EN"
 "http://www.w3.org/TR/2001/REC-SVG-20010904/DTD/svg10.dtd">
<svg version="1.0" xmlns="http://www.w3.org/2000/svg"
 width="99px" height="125px" viewBox="0 0 210.000000 267.000000"
 preserveAspectRatio="xMidYMid meet">

<g transform="translate(0.000000,267.000000) scale(0.100000,-0.100000)"
fill="#ff7200" stroke="none">
<path d="M503 2645 c-95 -26 -174 -73 -249 -150 -116 -117 -171 -261 -161
-422 6 -102 11 -112 46 -79 14 14 46 34 71 45 l46 20 2 65 c5 197 163 358 365
373 163 12 317 -77 383 -222 25 -53 51 -161 42 -171 -3 -2 -99 -9 -214 -14
-322 -14 -529 -49 -637 -107 -42 -23 -57 -38 -79 -83 -150 -301 -155 -1358 -8
-1686 37 -83 86 -114 241 -153 174 -44 323 -56 699 -56 387 0 530 12 718 61
183 48 215 80 262 263 43 172 77 602 65 831 -3 58 -8 152 -11 210 -9 182 -43
387 -80 490 -28 75 -80 130 -139 147 -162 45 -328 70 -521 80 l-134 6 0 41
c-1 100 -49 230 -118 314 -77 96 -146 145 -256 184 -69 23 -96 28 -181 27 -55
0 -124 -7 -152 -14z m467 -775 c-12 -17 -37 -42 -56 -57 -65 -49 -83 -127 -44
-190 69 -114 250 -63 250 70 0 21 -4 47 -10 57 -7 14 -1 32 27 79 20 34 41 61
47 61 32 0 123 -56 172 -105 95 -94 138 -228 115 -353 -12 -64 -49 -151 -78
-184 -14 -16 2 -57 173 -443 l188 -427 -18 -53 c-10 -29 -21 -58 -25 -63 -4
-7 -43 2 -109 26 -85 31 -102 40 -97 55 3 9 8 26 11 36 5 16 -3 22 -45 36
l-50 16 19 49 c11 27 26 65 35 85 l15 37 -30 11 c-33 13 -34 15 -20 51 8 23 6
26 -40 41 -47 16 -49 18 -39 42 12 32 11 33 -59 59 -54 20 -60 28 -51 63 3 8
-12 19 -38 29 -39 15 -45 22 -77 96 l-34 80 -81 12 c-151 22 -263 100 -327
228 -104 211 -17 455 199 557 34 16 70 29 80 29 17 0 17 -2 -3 -30z m-480 -62
c34 -24 68 -73 58 -83 -3 -3 -40 10 -81 30 -83 40 -104 40 -137 -2 -44 -57
-20 -103 83 -153 l80 -38 -42 -13 c-55 -16 -109 0 -150 46 -57 65 -50 150 17
205 47 39 121 42 172 8z"/>
</g>
</svg>
