<?xml version="1.0" standalone="no"?>
<!DOCTYPE svg PUBLIC "-//W3C//DTD SVG 20010904//EN"
 "http://www.w3.org/TR/2001/REC-SVG-20010904/DTD/svg10.dtd">
<svg version="1.0" xmlns="http://www.w3.org/2000/svg"
 width="24px" height="25px" viewBox="0 0 332.000000 344.000000"
 preserveAspectRatio="xMidYMid meet">

<g transform="translate(0.000000,344.000000) scale(0.100000,-0.100000)"
fill="#ff7200" stroke="none">
<path d="M1523 3348 c-215 -181 -293 -250 -303 -268 -18 -34 -11 -70 19 -101
54 -54 73 -45 274 124 76 65 142 117 147 117 5 0 81 -61 169 -135 181 -151
199 -159 252 -106 21 21 29 39 29 65 0 39 -25 64 -278 275 -172 145 -172 145
-309 29z"/>
<path d="M823 2840 c-81 -17 -141 -63 -174 -135 -17 -37 -19 -75 -19 -492 0
-249 -3 -453 -7 -453 -5 1 -92 61 -196 134 l-187 134 117 97 c153 127 163 137
163 184 0 59 -59 102 -113 82 -41 -16 -387 -309 -398 -338 -6 -17 -9 -342 -7
-912 l3 -886 33 -67 c38 -79 91 -128 171 -160 l56 -23 1395 0 1395 0 56 23
c80 32 133 81 171 160 l33 67 3 877 c1 483 -1 892 -6 910 -6 26 -45 64 -183
181 -202 172 -224 186 -269 167 -32 -13 -60 -54 -60 -88 0 -30 32 -64 161
-173 l120 -101 -23 -17 c-57 -43 -356 -251 -362 -251 -3 0 -6 204 -6 453 0
417 -2 455 -19 492 -24 52 -65 93 -121 119 -44 21 -54 21 -865 23 -451 0 -839
-3 -862 -7z m1675 -192 c9 -9 12 -138 12 -519 l0 -507 -425 -301 -425 -301
-422 299 -423 299 -3 507 c-1 367 1 512 9 521 16 19 1658 21 1677 2z m-1810
-1159 c273 -194 500 -355 504 -358 5 -4 -159 -135 -363 -291 -204 -156 -375
-292 -380 -301 -40 -76 46 -159 121 -119 11 6 191 141 400 300 209 160 383
290 387 290 3 0 49 -31 102 -69 157 -112 172 -121 204 -121 22 0 66 26 163 95
73 52 136 95 139 95 3 0 135 -98 293 -218 158 -120 335 -255 395 -300 87 -67
114 -82 143 -82 65 0 105 71 74 130 -6 10 -177 146 -380 301 -203 156 -367
286 -362 290 19 17 1001 709 1006 709 11 0 6 -1513 -4 -1552 -6 -20 -26 -50
-46 -67 l-35 -31 -1389 0 -1389 0 -35 31 c-20 17 -40 47 -46 67 -10 38 -15
1552 -5 1552 3 0 230 -158 503 -351z"/>
<path d="M1119 2401 c-37 -37 -38 -79 -3 -120 l26 -31 515 0 515 0 29 29 c39
40 39 82 0 122 l-29 29 -512 0 -512 0 -29 -29z"/>
<path d="M1144 2060 c-56 -22 -72 -103 -29 -145 l24 -25 521 0 521 0 24 25
c33 32 33 84 1 122 l-24 28 -509 2 c-279 1 -518 -2 -529 -7z"/>
<path d="M1163 1703 c-37 -7 -73 -52 -73 -90 0 -46 35 -80 91 -88 24 -3 189
-5 366 -3 l323 3 27 27 c37 37 37 89 0 126 l-27 27 -343 1 c-188 1 -352 0
-364 -3z"/>
</g>
</svg>
