<?xml version="1.0" standalone="no"?>
<!DOCTYPE svg PUBLIC "-//W3C//DTD SVG 20010904//EN"
 "http://www.w3.org/TR/2001/REC-SVG-20010904/DTD/svg10.dtd">
<svg version="1.0" xmlns="http://www.w3.org/2000/svg"
 width="19px" height="25px" viewBox="0 0 214.000000 280.000000"
 preserveAspectRatio="xMidYMid meet">

<g transform="translate(0.000000,280.000000) scale(0.100000,-0.100000)"
fill="#ff7200" stroke="none">
<path d="M910 2784 c-98 -19 -207 -52 -277 -85 -306 -141 -521 -402 -600 -730
-14 -57 -18 -113 -17 -239 1 -144 4 -177 26 -261 29 -108 79 -222 131 -301 61
-91 887 -1163 897 -1163 8 0 511 649 815 1052 109 144 175 271 212 408 23 88
26 119 27 265 1 126 -3 182 -17 239 -93 386 -382 685 -759 788 -78 21 -119 26
-253 28 -88 2 -171 1 -185 -1z m405 -212 c209 -68 373 -192 489 -366 170 -257
182 -633 28 -897 -44 -75 -749 -999 -762 -999 -13 0 -718 925 -762 999 -70
120 -108 270 -108 426 0 232 79 430 237 596 133 139 268 213 478 263 11 3 92
3 180 2 126 -3 173 -8 220 -24z"/>
<path d="M900 2374 c-169 -44 -339 -184 -419 -344 -74 -150 -88 -327 -40 -488
60 -196 236 -372 434 -435 57 -17 94 -22 195 -22 101 0 138 5 195 22 198 63
374 239 434 435 48 161 34 338 -40 488 -81 162 -251 301 -424 345 -75 19 -261
19 -335 -1z m363 -212 c187 -86 301 -297 268 -496 -63 -378 -525 -527 -793
-255 -241 246 -142 654 187 772 39 14 74 17 160 14 98 -3 117 -6 178 -35z"/>
</g>
</svg>
