<?xml version="1.0" standalone="no"?>
<!DOCTYPE svg PUBLIC "-//W3C//DTD SVG 20010904//EN"
 "http://www.w3.org/TR/2001/REC-SVG-20010904/DTD/svg10.dtd">
<svg version="1.0" xmlns="http://www.w3.org/2000/svg"
 width="25px" height="25px" viewBox="0 0 361.000000 362.000000"
 preserveAspectRatio="xMidYMid meet">

<g transform="translate(0.000000,362.000000) scale(0.100000,-0.100000)"
fill="#ff7200" stroke="none">
<path d="M840 3587 c-274 -100 -571 -318 -777 -569 l-56 -69 6 -172 c15 -394
104 -724 298 -1107 213 -422 586 -847 999 -1140 469 -333 1020 -519 1534 -520
l109 0 70 57 c244 197 478 520 568 784 39 117 8 263 -76 357 -38 42 -63 57
-162 100 -129 54 -278 109 -388 141 -108 31 -345 89 -395 96 -89 13 -243 -30
-291 -81 -13 -14 -62 -87 -109 -162 -86 -137 -86 -137 -123 -136 -29 1 -54 15
-114 60 -261 199 -510 446 -692 688 -57 76 -99 153 -89 161 2 1 70 44 152 96
162 101 195 135 221 223 32 106 31 151 -10 297 -62 225 -236 738 -265 781 -52
77 -153 125 -280 134 -52 4 -78 0 -130 -19z m146 -295 c13 -8 148 -405 214
-625 22 -76 38 -147 35 -158 -4 -10 -65 -56 -138 -101 -211 -134 -242 -178
-242 -348 0 -94 3 -111 28 -164 107 -229 608 -750 925 -963 125 -85 279 -105
399 -53 68 29 109 74 201 220 43 68 86 128 94 134 33 20 465 -101 681 -191 85
-36 108 -50 113 -68 7 -29 -71 -194 -143 -305 -66 -100 -191 -248 -259 -306
l-55 -47 -145 11 c-586 48 -1146 327 -1609 803 -151 155 -225 247 -341 420
-247 370 -393 781 -420 1181 l-7 106 54 62 c112 128 309 273 481 355 94 45
114 51 134 37z"/>
<path d="M2985 3214 c-16 -9 -186 -172 -377 -362 l-346 -345 -6 44 c-3 24 -10
122 -16 218 -12 195 -21 228 -79 267 -76 51 -181 24 -224 -60 l-21 -39 23
-376 c24 -414 31 -469 61 -510 39 -55 60 -59 471 -87 211 -14 405 -24 430 -21
115 10 174 130 114 232 -38 65 -62 72 -310 90 -120 8 -221 15 -224 15 -3 0
157 163 356 363 338 339 362 365 368 405 19 118 -116 220 -220 166z"/>
</g>
</svg>
